<svg width="22" height="20" viewBox="0 0 22 20" fill="none" xmlns="http://www.w3.org/2000/svg">
<path fill-rule="evenodd" clip-rule="evenodd" d="M10.1495 19.6734C10.3848 19.8841 10.6868 20 11 20C11.313 20 11.6152 19.8841 11.8503 19.6738C12.7411 18.8778 13.5993 18.1304 14.3566 17.4711L14.3569 17.4708C16.5729 15.5411 18.4865 13.8747 19.8182 12.2327C21.3068 10.3974 22 8.65709 22 6.75591C22 4.90876 21.3803 3.20464 20.2549 1.95726C19.1161 0.695126 17.5532 0 15.8543 0C14.5844 0 13.4214 0.410249 12.3977 1.21926C11.8809 1.62762 11.4127 2.1274 11 2.71036C10.5874 2.1274 10.1191 1.62762 9.60251 1.21926C8.57881 0.410249 7.4158 0 6.14587 0C4.44676 0 2.88411 0.695126 1.74527 1.95726C0.619858 3.20464 0 4.90876 0 6.75591C0 8.65709 0.693375 10.3974 2.18201 12.2329C3.5137 13.8747 5.42766 15.5415 7.64407 17.4714L7.64793 17.4749C8.40392 18.1331 9.26077 18.8794 10.1495 19.6734ZM2.6926 2.84979C3.5847 1.86121 4.81099 1.31685 6.14587 1.31685C7.12358 1.31685 8.02139 1.63448 8.81413 2.26083C9.52077 2.81926 10.0129 3.52519 10.3013 4.01914C10.4496 4.27315 10.7108 4.42476 11 4.42476C11.2892 4.42476 11.5504 4.27315 11.6987 4.01914C11.9873 3.52519 12.4794 2.81926 13.1859 2.26083C13.9786 1.63448 14.8764 1.31685 15.8543 1.31685C17.189 1.31685 18.4155 1.86121 19.3074 2.84979C20.2128 3.85329 20.7114 5.24046 20.7114 6.75591C20.7114 8.35489 20.1299 9.78493 18.826 11.3927C17.5668 12.9453 15.6945 14.5758 13.5266 16.4639L13.5207 16.469C12.7604 17.1308 11.8988 17.8812 10.9982 18.6826C10.1029 17.8827 9.24265 17.1336 8.48381 16.4727L8.47978 16.4693L8.47851 16.4682C6.30846 14.5785 4.43426 12.9464 3.17415 11.3927C1.87015 9.78493 1.28856 8.35489 1.28856 6.75591C1.28856 5.24046 1.78723 3.85329 2.6926 2.84979Z" fill="#5260AB"/>
</svg>
