<svg width="50" height="50" viewBox="0 0 50 50" fill="none" xmlns="http://www.w3.org/2000/svg">
<circle cx="25" cy="25" r="25" fill="#303A6C"/>
<mask id="mask0_1_287" style="mask-type:alpha" maskUnits="userSpaceOnUse" x="0" y="0" width="50" height="50">
<circle cx="25" cy="25" r="25" fill="white"/>
</mask>
<g mask="url(#mask0_1_287)">
<path fill-rule="evenodd" clip-rule="evenodd" d="M30.8035 30.8063C33.313 31.6723 35.6131 33.1028 37.5455 35.0352C40.8964 38.3862 42.7419 42.8416 42.7419 47.5806H39.9697C39.9697 39.3263 33.2544 32.6109 25 32.6109C16.7456 32.6109 10.0302 39.3263 10.0302 47.5806H7.25806C7.25806 42.8416 9.10356 38.3862 12.4546 35.0352C14.387 33.1028 16.6871 31.6723 19.1966 30.8063C16.5087 28.9551 14.7429 25.857 14.7429 22.3538C14.7429 16.6981 19.3443 12.0968 25 12.0968C30.6557 12.0968 35.257 16.6981 35.257 22.3538C35.257 25.857 33.4912 28.9551 30.8035 30.8063ZM16.9355 22.1774C16.9355 26.4019 20.3723 29.8387 24.5968 29.8387C28.8212 29.8387 32.2581 26.4019 32.2581 22.1774C32.2581 17.9529 28.8212 14.5161 24.5968 14.5161C20.3723 14.5161 16.9355 17.9529 16.9355 22.1774Z" fill="white"/>
</g>
</svg>
